PathFileType	4	(X/Y/Z)	E:\Marcel_BSc\Hannes_22_01_2025\22-01-2025\sumo_dl_3.trc
DataRate	CameraRate	NumFrames	NumMarkers	Units	OrigDataRate	OrigDataStartFrame	OrigNumFrames
200.0	200.0	7	48	mm	200.0	4142	2673	
Frame#	Time	FHD			LBHD			RBHD			RBAR			LBAR			RSACR			LSACR			USACR			LASI			C7			CLAV			T10			RSHO			LSHO			LTHI1			LTHI3			LTHI2			LTIB1			LTIB2			LTIB3			LMMAL			LLMAL			LHEE			LMT1			LMT5			LMT3			RTHI1			RTHI2			RTHI3			RTIB1			RTIB3			RTIB2			RLMAL			RMMAL			RHEE			RMT5			RMT1			RMT3			LDUPA			LMUPA			LUUPA			LUL			LRAD			LRFIN			RRAD			RMUPA			RDUPA			RUUPA			
		X1	Y1	Z1	X2	Y2	Z2	X3	Y3	Z3	X4	Y4	Z4	X5	Y5	Z5	X6	Y6	Z6	X7	Y7	Z7	X8	Y8	Z8	X9	Y9	Z9	X10	Y10	Z10	X11	Y11	Z11	X12	Y12	Z12	X13	Y13	Z13	X14	Y14	Z14	X15	Y15	Z15	X16	Y16	Z16	X17	Y17	Z17	X18	Y18	Z18	X19	Y19	Z19	X20	Y20	Z20	X21	Y21	Z21	X22	Y22	Z22	X23	Y23	Z23	X24	Y24	Z24	X25	Y25	Z25	X26	Y26	Z26	X27	Y27	Z27	X28	Y28	Z28	X29	Y29	Z29	X30	Y30	Z30	X31	Y31	Z31	X32	Y32	Z32	X33	Y33	Z33	X34	Y34	Z34	X35	Y35	Z35	X36	Y36	Z36	X37	Y37	Z37	X38	Y38	Z38	X39	Y39	Z39	X40	Y40	Z40	X41	Y41	Z41	X42	Y42	Z42	X43	Y43	Z43	X44	Y44	Z44	X45	Y45	Z45	X46	Y46	Z46	X47	Y47	Z47	X48	Y48	Z48	
4142	20.7	-278.07227	990.22748	-970.65845	-221.34184	1059.3499	-867.58258	-220.1447	1078.8815	-1063.4131	139.57222	262.82425	-2061.8608	127.47726	312.00659	157.69695	441.50977	851.35883	-989.64551	441.48688	850.97711	-927.18066	427.07486	862.85345	-961.63342				15.196023	1109.3717	-953.58667	-53.85524	938.30182	-962.83929	291.76254	953.80701	-954.6925	-3.9225757	994.57965	-1160.9065	-17.804113	990.95569	-760.69934	358.23169	691.38409	-675.53296	340.49869	638.98431	-639.56488	305.54755	676.04718	-637.60889	214.88963	270.64371	-476.09183	257.60822	275.76474	-504.6655	241.62036	213.3244	-494.09293	183.1414	84.966972	-555.25208	244.12122	81.037308	-484.6579	270.04922	26.322748	-544.69739	77.144249	41.903152	-449.8334	149.79054	27.952896	-387.43008	100.99227	31.964857	-406.88004	381.33386	666.81219	-1233.3931	329.89413	655.987	-1273.309	361.17996	617.18286	-1271.566	203.30702	278.57788	-1424.9985	218.69818	214.01379	-1418.541	248.96565	270.82449	-1405.1195	231.31256	77.514633	-1412.2904	160.14525	84.075493	-1347.9952	255.22047	30.094513	-1353.5281	148.65851	23.519293	-1507.0848	64.579636	36.86459	-1463.2607	95.025894	28.951015	-1501.1589	49.362652	748.59009	-689.25983	36.718025	808.64343	-697.50256	5.0320148	797.62311	-734.02533	77.02491	415.12079	-691.68091	73.247177	413.73569	-741.69183	86.535728	308.16235	-755.20349	154.7885	423.06583	-1224.9324	110.81131	791.56482	-1227.6442	89.772438	747.27991	-1218.1006	57.193317	819.07355	-1211.6669
4143	20.705	-278.22147	989.65924	-970.75757	-221.42349	1058.7035	-867.62524	-220.26994	1078.3383	-1063.4391	139.63858	261.94122	-2062.3191	127.44855	311.34915	157.64287	441.45963	851.05914	-989.66931	441.46802	850.625	-927.18311	427.03909	862.47888	-961.65393				15.028028	1108.7349	-953.64435	-53.525753	937.78174	-963.16742	291.67746	953.35779	-954.7276	-3.9936011	993.88892	-1161.0198	-17.874468	990.34222	-760.71869	358.27133	691.15088	-675.55157	340.55234	638.77557	-639.52692	305.64383	675.90845	-637.53229	214.81868	270.55984	-476.00931	257.55951	275.79684	-504.55701	241.61208	213.3179	-494.01682	183.16641	84.992821	-555.22754	244.13499	81.034416	-484.63751	270.04517	26.327663	-544.68976	77.155167	41.906685	-449.83676	149.86853	27.885323	-387.39151	101.01433	31.989347	-406.8837	381.27975	666.63135	-1233.4507	329.8353	655.82697	-1273.35	361.06525	617.026	-1271.6154	203.28535	278.63293	-1425.0479	218.6275	213.98886	-1418.6053	248.90323	270.84543	-1405.2217	231.33365	77.553665	-1412.3268	160.15112	84.087868	-1348.0239	255.25513	30.112558	-1353.5543	148.66277	23.505207	-1507.088	64.595528	36.894539	-1463.257	95.03791	28.941584	-1501.1531	49.610313	747.72443	-689.27161	36.75914	808.01752	-697.4964	4.9308395	797.06726	-733.91437	77.057541	414.57654	-691.61334	73.243759	413.14413	-741.66406	86.491791	307.5437	-755.22076	154.7576	422.49017	-1224.9916	110.78152	790.94611	-1227.6895	89.739616	746.6449	-1218.153	57.119419	818.4848	-1211.6698
4144	20.71	-278.41141	989.17871	-970.72839	-221.54802	1058.1185	-867.66272	-220.43709	1077.8436	-1063.4271	139.66049	261.44751	-2062.2102	127.44473	310.70981	157.64755	441.40329	850.72711	-989.75983	441.44504	850.20593	-927.21533	426.98752	862.15778	-961.66693				14.829698	1108.1281	-953.67596	-53.573025	937.18756	-963.17853	291.61069	952.88257	-954.7832	-4.2148805	993.35376	-1161.0078	-17.908264	989.68835	-760.72028	358.33197	690.86035	-675.56683	340.61285	638.57788	-639.50134	305.77417	675.724	-637.49707	214.59421	270.31778	-476.00717	257.5491	275.79968	-504.44931	241.59779	213.30902	-493.97989	183.17575	85.005272	-555.19513	244.13011	81.019066	-484.63867	270.04877	26.332548	-544.67853	77.161713	41.908031	-449.82077	149.92253	27.809927	-387.35101	101.02406	31.971111	-406.88086	381.22583	666.40198	-1233.49	329.79071	655.63324	-1273.3944	360.98718	616.75848	-1271.6692	203.24178	278.67615	-1425.115	218.62852	214.00395	-1418.6786	248.80495	270.87064	-1405.2904	231.38084	77.536163	-1412.3389	160.17929	84.100578	-1348.0524	255.26715	30.101635	-1353.5635	148.89273	23.506737	-1507.0566	64.606163	36.890511	-1463.2526	95.02549	28.922375	-1501.1469	49.401924	747.36035	-689.2655	36.762955	807.38959	-697.49701	5.0658808	796.44537	-734.1062	77.098373	413.94342	-691.67047	73.26899	412.48709	-741.70331	86.53064	306.91602	-755.26349	154.83548	421.88766	-1224.9734	110.7777	790.37366	-1227.7063	89.757866	746.04681	-1218.1681	57.135345	817.81415	-1211.7979
4145	20.715	-278.58505	988.62665	-970.73236	-221.70554	1057.6294	-867.65509	-220.54854	1077.2212	-1063.4551	139.66461	260.91617	-2062.4961	127.43345	310.06491	157.61034	441.37744	850.22894	-989.84216	441.44699	849.78101	-927.29388	426.96948	861.72748	-961.76703				14.689113	1107.4401	-953.75189	-54.273201	935.85913	-963.26208	291.54321	952.40869	-954.84619	-4.2291913	992.46063	-1161.1508	-18.031525	989.09637	-760.73895	358.43411	690.57513	-675.53351	340.59888	638.4043	-639.4516	305.841	675.53296	-637.48029	214.42598	270.21442	-476.03946	257.52856	275.79956	-504.39066	241.62102	213.29878	-493.92737	183.1882	85.029762	-555.16858	244.13284	81.024338	-484.63425	270.0498	26.343754	-544.67902	77.162758	41.909512	-449.81143	150.0368	27.739162	-387.29404	101.16261	32.09922	-406.92929	381.19473	666.0849	-1233.5466	329.70035	655.40924	-1273.4352	360.87915	616.42261	-1271.782	203.17595	278.70404	-1425.1821	218.58151	213.99002	-1418.7133	248.68999	270.88162	-1405.3557	231.41876	77.552368	-1412.3351	160.17029	84.090919	-1348.0697	255.28204	30.112963	-1353.574	148.68904	23.49255	-1507.1074	64.626526	36.867748	-1463.2417	95.036255	28.911209	-1501.1252	49.361126	746.73761	-689.33868	36.677391	806.78827	-697.5379	4.9361153	795.73694	-733.98999	77.063011	413.30676	-691.72302	73.267807	411.87253	-741.76788	86.520966	306.32928	-755.27197	154.87292	421.31168	-1225.0117	110.79919	789.71863	-1227.7316	89.794975	745.41718	-1218.2256	57.097351	817.17542	-1211.8483
4146	20.72	-278.79123	988.12299	-970.71484	-221.83386	1057.132	-867.64392	-220.68767	1076.6212	-1063.4683	139.61455	260.31885	-2062.5356	127.38067	309.44196	157.6097	441.3302	849.84363	-989.84991	441.46677	849.37671	-927.38007	426.95023	861.28241	-961.81824				14.49947	1106.7969	-953.77533	-53.75346	935.90869	-963.19354	291.45694	951.94159	-954.9364	-4.404459	991.72803	-1160.7546	-18.132671	988.52148	-760.75085	358.54733	690.36517	-675.55298	340.63257	638.24219	-639.4245	305.89758	675.3985	-637.46924	214.26726	270.06671	-476.07556	257.54767	275.77527	-504.34576	241.60123	213.36507	-493.85187	183.18275	85.051323	-555.1413	244.13686	81.011414	-484.63412	270.03101	26.347128	-544.67651	77.167976	41.910492	-449.80646	150.14998	27.616915	-387.25827	101.47732	32.055786	-407.11548	381.14578	665.74481	-1233.6169	329.63232	655.14813	-1273.4894	360.78687	616.11676	-1271.839	203.1107	278.70215	-1425.2355	218.51422	213.93597	-1418.7334	248.57654	270.85602	-1405.3929	231.44055	77.548698	-1412.3395	160.17436	84.06369	-1348.074	255.28851	30.117075	-1353.5782	148.66483	23.489193	-1507.1033	64.606934	36.843918	-1463.2382	95.045662	28.9053	-1501.1183	49.412045	745.86682	-689.43372	36.549587	806.13837	-697.61389	4.7783208	795.16962	-734.08075	77.0261	412.71777	-691.72778	73.242218	411.22388	-741.82977	86.513863	305.66058	-755.32971	154.94424	420.6864	-1225.0197	110.82236	789.14069	-1227.7632	89.887238	744.74103	-1218.2864	57.111336	816.49683	-1211.9277
4147	20.725	-278.95853	987.61713	-970.58429	-221.9174	1056.5702	-867.63092	-220.80785	1075.9816	-1063.4835	139.61383	259.80511	-2062.5549	127.37584	308.78891	157.57278	441.33539	849.41949	-989.92645	441.48544	848.98657	-927.45825	426.97501	860.88312	-961.95563				14.332142	1106.1521	-953.815	-54.379032	934.94598	-962.93628	291.39136	951.46124	-955.01312	-4.6615973	991.27429	-1161.0261	-18.207678	987.85461	-760.75995	358.67795	690.15204	-675.53253	340.64789	638.01941	-639.41718	305.98077	675.22455	-637.4671	213.76669	269.9519	-476.58401	257.49472	275.79443	-504.36591	241.62965	213.36206	-493.84479	183.17073	85.042114	-555.13306	244.11974	81.015358	-484.64078	270.02618	26.349808	-544.67987	77.167305	41.916523	-449.80777	149.66171	28.141712	-387.40677	101.50349	32.032646	-407.12405	381.07806	665.35254	-1233.6703	329.52216	654.89111	-1273.5068	360.62015	615.85046	-1271.9121	203.0323	278.66165	-1425.4575	218.44405	213.85486	-1418.7469	248.44044	270.80566	-1405.4371	231.45586	77.544548	-1412.3474	160.16823	84.029259	-1348.105	255.29205	30.104664	-1353.5846	148.67708	23.466242	-1507.1099	64.624413	36.868988	-1463.2256	95.046494	28.912066	-1501.1083	49.052364	745.44623	-689.4646	36.357529	805.50513	-697.66815	4.6787691	794.4519	-734.21606	76.927559	412.04611	-691.82599	73.181572	410.59906	-741.86755	86.521019	305.03058	-755.36066	155.01042	420.08493	-1224.9934	110.83941	788.48303	-1227.7919	89.911057	744.11456	-1218.3259	57.085209	815.8075	-1211.9761
4148	20.73	-279.16122	987.0415	-970.61426	-222.04961	1056.0599	-867.61414	-220.95276	1075.3326	-1063.4794	139.59856	259.25214	-2062.4451	127.33411	308.15247	157.57086	441.37491	849.02808	-990.09552	441.53146	848.58881	-927.6026	426.99734	860.46515	-962.05786				14.210448	1105.4626	-953.84583	-54.404453	934.29443	-962.9353	291.31866	951.00189	-955.09058	-4.7373199	990.42407	-1161.1272	-18.352154	987.21747	-760.77295	358.74548	689.88953	-675.55823	340.70834	637.78235	-639.43457	306.04135	675.06354	-637.46429	215.45146	271.50415	-475.38165	257.44559	275.78897	-504.38785	241.5585	213.36501	-493.87216	183.14799	85.050636	-555.14252	244.12	81.015251	-484.65005	270.02017	26.347692	-544.68268	77.172386	41.917694	-449.80502	149.6825	28.172728	-387.40109	101.50645	32.037075	-407.12741	381.00507	665.01813	-1233.7473	329.39963	654.61578	-1273.5406	360.47708	615.49829	-1272.0381	202.96082	278.59326	-1425.0973	218.38644	213.74362	-1418.7571	248.3537	270.70773	-1405.4766	231.49165	77.523087	-1412.3456	160.19858	83.975937	-1348.1223	255.32306	30.108438	-1353.5885	148.68108	23.462204	-1507.1034	64.613388	36.87455	-1463.223	95.047394	28.904036	-1501.0973	48.843464	744.81836	-689.52295	36.146969	804.82739	-697.71912	4.4804363	793.88525	-734.20966	76.81871	411.3956	-691.84998	73.128761	409.98682	-741.88403	86.516678	304.41702	-755.39294	155.00984	419.48346	-1225.048	110.80653	787.83032	-1227.8826	89.960953	743.39313	-1218.4065	57.022831	815.07788	-1212.073
